# Blender 5.0.0
# www.blender.org
o Suzanne
v -0.437500 0.164062 0.765625
v -0.500000 0.093750 0.687500
v -0.546875 0.054688 0.578125
v -0.351562 -0.023438 0.617188
v -0.351562 0.031250 0.718750
v -0.351562 0.132812 0.781250
v -0.273438 0.164062 0.796875
v -0.203125 0.093750 0.742188
v -0.156250 0.054688 0.648438
v -0.078125 0.242188 0.656250
v -0.140625 0.242188 0.742188
v -0.242188 0.242188 0.796875
v -0.273438 0.328125 0.796875
v -0.203125 0.390625 0.742188
v -0.156250 0.437500 0.648438
v -0.351562 0.515625 0.617188
v -0.351562 0.453125 0.718750
v -0.351562 0.359375 0.781250
v -0.437500 0.328125 0.765625
v -0.500000 0.390625 0.687500
v -0.546875 0.437500 0.578125
v -0.625000 0.242188 0.562500
v -0.562500 0.242188 0.671875
v -0.468750 0.242188 0.757812
v -0.476562 0.242188 0.773438
v -0.445312 0.335938 0.781250
v -0.351562 0.375000 0.804688
v -0.265625 0.335938 0.820312
v -0.226562 0.242188 0.820312
v -0.265625 0.156250 0.820312
v -0.351562 0.242188 0.828125
v -0.351562 0.117188 0.804688
v -0.445312 0.156250 0.781250
v 0.000000 0.429688 0.742188
v 0.000000 0.351562 0.820312
v 0.000000 -0.679688 0.734375
v 0.000000 -0.320312 0.781250
v 0.000000 -0.187500 0.796875
v 0.000000 -0.773438 0.718750
v 0.000000 0.406250 0.601562
v 0.000000 0.570312 0.570312
v 0.000000 0.898438 -0.546875
v 0.000000 0.562500 -0.851562
v 0.000000 0.070312 -0.828125
v 0.000000 -0.382812 -0.351562
v -0.203125 -0.187500 0.562500
v -0.312500 -0.437500 0.570312
v -0.351562 -0.695312 0.570312
v -0.367188 -0.890625 0.531250
v -0.328125 -0.945312 0.523438
v -0.179688 -0.968750 0.554688
v 0.000000 -0.984375 0.578125
v -0.437500 -0.140625 0.531250
v -0.632812 -0.039062 0.539062
v -0.828125 0.148438 0.445312
v -0.859375 0.429688 0.593750
v -0.710938 0.484375 0.625000
v -0.492188 0.601562 0.687500
v -0.320312 0.757812 0.734375
v -0.156250 0.718750 0.757812
v -0.062500 0.492188 0.750000
v -0.164062 0.414062 0.773438
v -0.125000 0.304688 0.765625
v -0.203125 0.093750 0.742188
v -0.375000 0.015625 0.703125
v -0.492188 0.062500 0.671875
v -0.625000 0.187500 0.648438
v -0.640625 0.296875 0.648438
v -0.601562 0.375000 0.664062
v -0.429688 0.437500 0.718750
v -0.250000 0.468750 0.757812
v 0.000000 -0.765625 0.734375
v -0.109375 -0.718750 0.734375
v -0.117188 -0.835938 0.710938
v -0.062500 -0.882812 0.695312
v 0.000000 -0.890625 0.687500
v 0.000000 -0.195312 0.750000
v 0.000000 -0.140625 0.742188
v -0.101562 -0.148438 0.742188
v -0.125000 -0.226562 0.750000
v -0.085938 -0.289062 0.742188
v -0.398438 -0.046875 0.671875
v -0.617188 0.054688 0.625000
v -0.726562 0.203125 0.601562
v -0.742188 0.375000 0.656250
v -0.687500 0.414062 0.726562
v -0.437500 0.546875 0.796875
v -0.312500 0.640625 0.835938
v -0.203125 0.617188 0.851562
v -0.101562 0.429688 0.843750
v -0.125000 -0.101562 0.812500
v -0.210938 -0.445312 0.710938
v -0.250000 -0.703125 0.687500
v -0.265625 -0.820312 0.664062
v -0.234375 -0.914062 0.632812
v -0.164062 -0.929688 0.632812
v 0.000000 -0.945312 0.640625
v 0.000000 0.046875 0.726562
v 0.000000 0.210938 0.765625
v -0.328125 0.476562 0.742188
v -0.164062 0.140625 0.750000
v -0.132812 0.210938 0.757812
v -0.117188 -0.687500 0.734375
v -0.078125 -0.445312 0.750000
v 0.000000 -0.445312 0.750000
v 0.000000 -0.328125 0.742188
v -0.093750 -0.273438 0.781250
v -0.132812 -0.226562 0.796875
v -0.109375 -0.132812 0.781250
v -0.039062 -0.125000 0.781250
v 0.000000 -0.203125 0.828125
v -0.046875 -0.148438 0.812500
v -0.093750 -0.156250 0.812500
v -0.109375 -0.226562 0.828125
v -0.078125 -0.250000 0.804688
v 0.000000 -0.289062 0.804688
v -0.257812 -0.312500 0.554688
v -0.164062 -0.242188 0.710938
v -0.179688 -0.312500 0.710938
v -0.234375 -0.250000 0.554688
v 0.000000 -0.875000 0.687500
v -0.046875 -0.867188 0.687500
v -0.093750 -0.820312 0.710938
v -0.093750 -0.742188 0.726562
v 0.000000 -0.781250 0.656250
v -0.093750 -0.750000 0.664062
v -0.093750 -0.812500 0.640625
v -0.046875 -0.851562 0.632812
v 0.000000 -0.859375 0.632812
v -0.171875 0.218750 0.781250
v -0.187500 0.156250 0.773438
v -0.335938 0.429688 0.757812
v -0.273438 0.421875 0.773438
v -0.421875 0.398438 0.773438
v -0.562500 0.351562 0.695312
v -0.585938 0.289062 0.687500
v -0.578125 0.195312 0.679688
v -0.476562 0.101562 0.718750
v -0.375000 0.062500 0.742188
v -0.226562 0.109375 0.781250
v -0.179688 0.296875 0.781250
v -0.210938 0.375000 0.781250
v -0.234375 0.359375 0.757812
v -0.195312 0.296875 0.757812
v -0.242188 0.125000 0.757812
v -0.375000 0.085938 0.726562
v -0.460938 0.117188 0.703125
v -0.546875 0.210938 0.671875
v -0.554688 0.281250 0.671875
v -0.531250 0.335938 0.679688
v -0.414062 0.390625 0.750000
v -0.281250 0.398438 0.765625
v -0.335938 0.406250 0.750000
v -0.203125 0.171875 0.750000
v -0.195312 0.226562 0.750000
v -0.109375 0.460938 0.609375
v -0.195312 0.664062 0.617188
v -0.335938 0.687500 0.593750
v -0.484375 0.554688 0.554688
v -0.679688 0.453125 0.492188
v -0.796875 0.406250 0.460938
v -0.773438 0.164062 0.375000
v -0.601562 0.000000 0.414062
v -0.437500 -0.093750 0.468750
v 0.000000 0.898438 0.289062
v 0.000000 0.984375 -0.078125
v 0.000000 -0.195312 -0.671875
v 0.000000 -0.460938 0.187500
v 0.000000 -0.976562 0.460938
v 0.000000 -0.804688 0.343750
v 0.000000 -0.570312 0.320312
v 0.000000 -0.484375 0.281250
v -0.851562 0.234375 0.054688
v -0.859375 0.320312 -0.046875
v -0.773438 0.265625 -0.437500
v -0.460938 0.437500 -0.703125
v -0.734375 -0.046875 0.070312
v -0.593750 -0.125000 -0.164062
v -0.640625 -0.007812 -0.429688
v -0.335938 0.054688 -0.664062
v -0.234375 -0.351562 0.406250
v -0.179688 -0.414062 0.257812
v -0.289062 -0.710938 0.382812
v -0.250000 -0.500000 0.390625
v -0.328125 -0.914062 0.398438
v -0.140625 -0.757812 0.367188
v -0.125000 -0.539062 0.359375
v -0.164062 -0.945312 0.437500
v -0.218750 -0.281250 0.429688
v -0.210938 -0.226562 0.468750
v -0.203125 -0.171875 0.500000
v -0.210938 -0.390625 0.164062
v -0.296875 -0.312500 -0.265625
v -0.343750 -0.148438 -0.539062
v -0.453125 0.867188 -0.382812
v -0.453125 0.929688 -0.070312
v -0.453125 0.851562 0.234375
v -0.460938 0.523438 0.429688
v -0.726562 0.406250 0.335938
v -0.632812 0.453125 0.281250
v -0.640625 0.703125 0.054688
v -0.796875 0.562500 0.125000
v -0.796875 0.617188 -0.117188
v -0.640625 0.750000 -0.195312
v -0.640625 0.679688 -0.445312
v -0.796875 0.539062 -0.359375
v -0.617188 0.328125 -0.585938
v -0.484375 0.023438 -0.546875
v -0.820312 0.328125 -0.203125
v -0.406250 -0.171875 0.148438
v -0.429688 -0.195312 -0.210938
v -0.890625 0.406250 -0.234375
v -0.773438 -0.140625 -0.125000
v -1.039062 -0.101562 -0.328125
v -1.281250 0.054688 -0.429688
v -1.351562 0.320312 -0.421875
v -1.234375 0.507812 -0.421875
v -1.023438 0.476562 -0.312500
v -1.015625 0.414062 -0.289062
v -1.187500 0.437500 -0.390625
v -1.265625 0.289062 -0.406250
v -1.210938 0.078125 -0.406250
v -1.031250 -0.039062 -0.304688
v -0.828125 -0.070312 -0.132812
v -0.921875 0.359375 -0.218750
v -0.945312 0.304688 -0.289062
v -0.882812 -0.023438 -0.210938
v -1.039062 0.000000 -0.367188
v -1.187500 0.093750 -0.445312
v -1.234375 0.250000 -0.445312
v -1.171875 0.359375 -0.437500
v -1.023438 0.343750 -0.359375
v -0.843750 0.289062 -0.210938
v -0.835938 0.171875 -0.273438
v -0.757812 0.093750 -0.273438
v -0.820312 0.085938 -0.273438
v -0.843750 0.015625 -0.273438
v -0.812500 -0.015625 -0.273438
v -0.726562 0.000000 -0.070312
v -0.718750 -0.023438 -0.171875
v -0.718750 0.039062 -0.187500
v -0.796875 0.203125 -0.210938
v -0.890625 0.242188 -0.265625
v -0.890625 0.234375 -0.320312
v -0.812500 -0.015625 -0.320312
v -0.851562 0.015625 -0.320312
v -0.828125 0.078125 -0.320312
v -0.765625 0.093750 -0.320312
v -0.843750 0.171875 -0.320312
v -1.039062 0.328125 -0.414062
v -1.187500 0.343750 -0.484375
v -1.257812 0.242188 -0.492188
v -1.210938 0.085938 -0.484375
v -1.046875 0.000000 -0.421875
v -0.882812 -0.015625 -0.265625
v -0.953125 0.289062 -0.343750
v -0.890625 0.109375 -0.328125
v -0.937500 0.062500 -0.335938
v -1.000000 0.125000 -0.367188
v -0.960938 0.171875 -0.351562
v -1.015625 0.234375 -0.375000
v -1.054688 0.187500 -0.382812
v -1.109375 0.210938 -0.390625
v -1.085938 0.273438 -0.390625
v -1.023438 0.437500 -0.484375
v -1.250000 0.468750 -0.546875
v -1.367188 0.296875 -0.500000
v -1.312500 0.054688 -0.531250
v -1.039062 -0.085938 -0.492188
v -0.789062 -0.125000 -0.328125
v -0.859375 0.382812 -0.382812
vn -0.6650 -0.2008 0.7194
vn -0.8294 -0.3036 0.4689
vn -0.4155 -0.7933 0.4449
vn -0.3600 -0.5089 0.7820
vn 0.0787 -0.5394 0.8384
vn 0.2696 -0.8413 0.4685
vn 0.7707 -0.3352 0.5420
vn 0.4689 -0.1940 0.8617
vn 0.4767 0.1907 0.8581
vn 0.7672 0.3264 0.5521
vn 0.2519 0.8173 0.5182
vn 0.0949 0.5696 0.8164
vn -0.3667 0.5370 0.7597
vn -0.4141 0.7672 0.4898
vn -0.8277 0.2952 0.4771
vn -0.6713 0.1971 0.7145
vn -0.8111 0.3244 -0.4867
vn -0.2052 0.8206 -0.5334
vn 0.4223 0.7806 -0.4607
vn 0.8241 0.3225 -0.4658
vn 0.8137 -0.3487 -0.4650
vn 0.4223 -0.7806 -0.4607
vn -0.2052 -0.8206 -0.5334
vn -0.7995 -0.3510 -0.4875
vn -0.4000 -0.0623 0.9144
vn -0.3069 -0.1754 0.9354
vn -0.0945 -0.1835 0.9785
vn 0.0624 -0.0283 0.9977
vn 0.0624 0.0260 0.9977
vn -0.0996 0.1729 0.9799
vn -0.3036 0.1656 0.9383
vn -0.4002 0.0572 0.9147
vn -0.1231 -0.8616 0.4924
vn -0.2190 -0.8647 0.4520
vn -0.5902 -0.4550 0.6668
vn -0.7689 -0.0506 0.6374
vn -0.7796 0.0900 0.6197
vn -0.3241 -0.8188 0.4739
vn -0.3857 -0.6629 0.6417
vn -0.6895 -0.4193 0.5906
vn -0.6588 -0.3634 0.6588
vn -0.5465 0.3707 0.7509
vn -0.5064 0.6464 0.5706
vn -0.6092 0.5167 0.6015
vn 0.0441 0.6610 0.7491
vn 0.7246 0.3187 0.6110
vn 0.5880 0.5554 0.5880
vn -0.5361 -0.3909 0.7482
vn -0.2207 -0.4690 0.8552
vn 0.0794 -0.5321 0.8429
vn 0.0825 -0.6575 0.7490
vn -0.0457 -0.5667 0.8226
vn -0.2784 -0.2130 0.9365
vn -0.3813 -0.1824 0.9063
vn -0.3357 -0.2878 0.8969
vn -0.3762 0.0603 0.9246
vn 0.1352 0.2680 0.9539
vn -0.3961 -0.4321 0.8102
vn -0.1856 -0.2474 0.9510
vn -0.0099 -0.1948 0.9808
vn -0.0721 -0.6966 0.7138
vn -0.1863 -0.5723 0.7986
vn -0.3157 -0.2708 0.9094
vn -0.3063 -0.0265 0.9516
vn -0.3266 -0.1306 0.9361
vn 0.0137 0.0574 0.9983
vn 0.0026 -0.0656 0.9978
vn -0.0000 -0.0000 1.0000
vn -0.8174 -0.5744 -0.0442
vn -0.9494 0.2297 -0.2144
vn -0.0825 0.9073 -0.4124
vn 0.8836 0.3555 0.3047
vn -0.4207 -0.8797 0.2218
vn -0.2873 -0.5747 0.7663
vn 0.6542 0.6019 0.4580
vn -0.1052 0.7892 0.6051
vn -0.7582 0.2916 0.5832
vn -0.3889 -0.7130 0.5834
vn -0.0463 0.2314 0.9718
vn -0.0335 -0.4018 0.9151
vn 0.4452 -0.1610 0.8809
vn 0.2182 -0.4364 0.8729
vn -0.4341 -0.1290 0.8916
vn -0.3008 0.0501 0.9524
vn -0.8123 0.3010 0.4996
vn -0.8753 0.2574 0.4093
vn -0.9385 0.1601 0.3060
vn -0.2237 -0.6539 0.7227
vn 0.1536 -0.1997 0.9677
vn 0.2733 -0.1025 0.9565
vn 0.0976 0.1952 0.9759
vn 0.1582 0.9494 0.2713
vn 0.6934 0.7082 0.1328
vn 1.0000 -0.0000 -0.0000
vn -0.3051 -0.9450 0.1181
vn -0.0298 -0.2981 0.9541
vn -0.1353 -0.3479 0.9277
vn 0.5085 -0.2755 0.8158
vn 0.3843 -0.0419 0.9223
vn 0.2083 0.0374 0.9774
vn 0.5721 -0.4767 0.6674
vn 0.1369 -0.7531 0.6435
vn -0.4088 -0.6071 0.6814
vn -0.5740 -0.4130 0.7070
vn -0.5665 -0.0968 0.8183
vn -0.5703 0.1180 0.8129
vn -0.4823 0.5621 0.6719
vn -0.2604 0.6114 0.7473
vn -0.1640 0.3607 0.9182
vn 0.0178 0.2495 0.9682
vn -0.3273 -0.4166 0.8481
vn -0.2811 -0.2610 0.9235
vn 0.2542 -0.6514 0.7149
vn 0.0260 -0.8455 0.5333
vn 0.3518 -0.2606 0.8991
vn 0.3523 -0.0110 0.9358
vn 0.1317 0.4608 0.8777
vn 0.0342 0.6159 0.7870
vn -0.3603 0.5836 0.7277
vn -0.4988 0.5300 0.6858
vn -0.6667 -0.3333 0.6667
vn -0.8165 -0.0731 0.5727
vn -0.7840 0.1161 0.6098
vn 0.5306 0.8111 -0.2461
vn 0.8511 0.3695 -0.3730
vn 0.2446 0.8675 -0.4331
vn -0.5924 0.7465 -0.3030
vn -0.3685 0.8758 -0.3118
vn -0.2821 0.9151 -0.2880
vn -0.8561 0.1340 -0.4991
vn -0.5342 -0.7233 -0.4376
vn -0.3849 -0.8131 -0.4368
vn -0.2335 -0.5806 -0.7800
vn -0.2449 -0.0583 -0.9678
vn -0.1163 -0.4535 -0.8837
vn -0.1152 -0.9836 -0.1388
vn -0.1184 -0.9669 -0.2260
vn -0.9597 -0.0085 -0.2808
vn -0.9319 0.1629 -0.3242
vn -0.1626 0.0207 -0.9865
vn 0.0188 -0.2177 -0.9758
vn -0.7538 -0.2926 -0.5884
vn -0.9196 0.1379 -0.3678
vn -0.9297 0.3127 -0.1944
vn -0.9120 0.3376 -0.2329
vn -0.9407 0.3338 -0.0607
vn -0.1761 -0.8805 -0.4402
vn -0.3708 -0.4733 -0.7991
vn -0.3107 -0.8284 -0.4660
vn -0.2793 -0.9515 -0.1287
vn -0.3139 -0.9321 -0.1807
vn -0.9762 -0.2083 -0.0609
vn -0.8267 -0.5066 0.2447
vn -0.3449 -0.1158 -0.9315
vn -0.1203 0.9644 0.2355
vn -0.1275 0.9744 -0.1851
vn -0.3492 0.5947 -0.7241
vn -0.4153 0.8981 -0.1449
vn -0.1845 0.7036 0.6863
vn -0.6056 0.7794 0.1608
vn -0.7033 0.6806 -0.2053
vn -0.6679 0.2007 -0.7166
vn -0.4948 0.4342 -0.7528
vn -0.6423 0.7459 -0.1761
vn -0.7182 0.6788 0.1530
vn -0.7388 0.3972 0.5444
vn -0.3428 0.9261 -0.1579
vn -0.2270 0.5740 0.7867
vn 0.1722 0.1046 -0.9795
vn -0.0425 0.9150 0.4013
vn 0.1616 0.1847 0.9694
vn -0.9791 0.1973 0.0483
vn -0.9470 0.0918 0.3079
vn -0.9794 0.1905 -0.0661
vn -0.9938 0.0312 -0.1070
vn -0.7116 -0.7008 0.0501
vn -0.3722 -0.9243 0.0847
vn -0.4465 -0.8644 0.2310
vn -0.6066 -0.7578 0.2405
vn -0.7325 -0.6368 0.2407
vn -0.2637 -0.4499 0.8533
vn -0.5568 -0.3181 -0.7673
vn -0.5004 -0.2807 -0.8190
vn -0.3190 -0.8494 -0.4205
vn -0.7198 -0.6356 -0.2793
vn -0.4972 -0.4408 -0.7473
vn -0.3506 0.3807 0.8557
vn -0.4566 0.1715 0.8730
vn -0.2583 0.1055 0.9603
vn -0.2455 -0.0802 0.9661
vn -0.4643 -0.0599 0.8837
vn -0.6225 -0.3045 0.7210
vn -0.4500 0.6590 0.6027
vn 0.2667 0.8309 0.4884
vn 0.8284 0.2291 0.5111
vn 0.5251 -0.3566 0.7727
vn -0.4546 -0.5665 0.6873
vn -0.6996 -0.4497 0.5552
vn -0.7220 -0.6827 -0.1126
vn 0.1919 0.2860 0.9388
vn -0.9048 -0.3734 -0.2047
vn -0.1034 0.1551 0.9825
vn -0.0841 0.9318 0.3530
vn -0.6446 -0.0883 0.7594
vn -0.4309 0.4740 0.7678
vn -0.8032 -0.4847 0.3462
vn -0.5811 -0.4128 0.7014
vn -0.5910 -0.4305 0.6822
vn -0.9818 -0.1804 -0.0591
vn -0.9105 -0.3965 -0.1175
vn -0.9972 -0.0181 -0.0725
vn -0.7313 -0.6543 0.1925
vn -0.7867 -0.6079 0.1073
vn -0.7022 -0.7022 0.1170
vn -0.1840 0.9816 -0.0511
vn -0.9352 0.3301 0.1284
vn -0.6633 -0.7463 0.0553
vn 0.0085 0.9970 0.0767
vn -0.6237 -0.7061 0.3354
vn -0.2733 -0.8925 0.3587
vn 0.8328 -0.5080 -0.2200
vn 0.8339 0.2377 -0.4981
vn 0.5655 0.7847 -0.2539
vn 0.0560 0.9962 0.0672
vn -0.1445 0.0222 0.9893
vn -0.3275 0.0645 0.9427
vn -0.3127 0.0232 0.9496
vn -0.1710 0.0274 0.9849
vn -0.3487 0.2849 0.8929
vn -0.4006 -0.0343 0.9156
vn -0.2572 -0.0603 0.9645
vn -0.0637 -0.0106 0.9979
vn 0.3637 0.7039 0.6101
vn -0.6299 0.0355 0.7759
vn -0.4472 -0.2002 0.8717
vn -0.5072 -0.2141 0.8348
vn -0.5258 0.2619 0.8093
vn -0.2980 0.5802 0.7580
vn -0.0930 -0.9924 -0.0805
vn -0.5006 -0.8657 0.0080
vn -0.9285 -0.2497 0.2748
vn -0.8393 0.5424 -0.0378
vn 0.2355 0.9367 -0.2589
vn 0.4499 0.8838 -0.1285
vn 0.5384 -0.0098 -0.8427
vn 0.1910 -0.0241 -0.9813
vn -0.4046 0.0266 -0.9141
vn 0.7819 0.6231 0.0197
vn -0.5428 -0.2063 -0.8142
vn 0.2474 -0.9231 -0.2945
s 0
f 2//1 1//1 24//1 23//1
f 3//2 2//2 23//2 22//2
f 4//3 5//3 2//3 3//3
f 5//4 6//4 1//4 2//4
f 8//5 7//5 6//5 5//5
f 9//6 8//6 5//6 4//6
f 10//7 11//7 8//7 9//7
f 11//8 12//8 7//8 8//8
f 14//9 13//9 12//9 11//9
f 15//10 14//10 11//10 10//10
f 16//11 17//11 14//11 15//11
f 17//12 18//12 13//12 14//12
f 20//13 19//13 18//13 17//13
f 21//14 20//14 17//14 16//14
f 22//15 23//15 20//15 21//15
f 23//16 24//16 19//16 20//16
f 26//17 19//17 24//17 25//17
f 27//18 18//18 19//18 26//18
f 28//19 13//19 18//19 27//19
f 29//20 12//20 13//20 28//20
f 30//21 7//21 12//21 29//21
f 32//22 6//22 7//22 30//22
f 33//23 1//23 6//23 32//23
f 25//24 24//24 1//24 33//24
f 25//25 33//25 31//25
f 31//26 33//26 32//26
f 32//27 30//27 31//27
f 30//28 29//28 31//28
f 29//29 28//29 31//29
f 28//30 27//30 31//30
f 27//31 26//31 31//31
f 26//32 25//32 31//32
f 97//33 96//33 51//33 52//33
f 96//34 95//34 50//34 51//34
f 95//35 94//35 49//35 50//35
f 94//36 93//36 48//36 49//36
f 93//37 92//37 47//37 48//37
f 82//38 53//38 46//38 91//38
f 83//39 54//39 53//39 82//39
f 84//40 55//40 54//40 83//40
f 85//41 56//41 55//41 84//41
f 86//42 57//42 56//42 85//42
f 87//43 58//43 57//43 86//43
f 88//44 59//44 58//44 87//44
f 89//45 60//45 59//45 88//45
f 90//46 61//46 60//46 89//46
f 35//47 34//47 61//47 90//47
f 89//48 71//48 62//48 90//48
f 88//49 100//49 71//49 89//49
f 88//50 87//50 70//50 100//50
f 87//51 86//51 69//51 70//51
f 86//52 85//52 68//52 69//52
f 85//53 84//53 67//53 68//53
f 84//54 83//54 66//54 67//54
f 83//55 82//55 65//55 66//55
f 82//56 91//56 64//56 65//56
f 98//57 101//57 64//57 91//57
f 35//58 90//58 62//58 63//58
f 99//59 35//59 63//59 102//59
f 102//60 101//60 98//60 99//60
f 97//61 76//61 75//61 96//61
f 96//62 75//62 74//62 95//62
f 95//63 74//63 73//63 94//63
f 103//64 104//64 92//64 93//64
f 93//65 94//65 73//65 103//65
f 105//66 106//66 81//66 104//66
f 105//67 104//67 103//67 36//67
f 103//68 73//68 72//68 36//68
f 107//69 108//69 80//69 81//69
f 108//70 109//70 79//70 80//70
f 109//71 110//71 78//71 79//71
f 110//72 38//72 77//72 78//72
f 107//73 81//73 106//73 37//73
f 115//74 107//74 37//74 116//74
f 112//75 111//75 38//75 110//75
f 113//76 112//76 110//76 109//76
f 114//77 113//77 109//77 108//77
f 115//78 114//78 108//78 107//78
f 113//79 114//79 111//79 112//79
f 115//80 116//80 111//80 114//80
f 91//81 79//81 78//81 98//81
f 118//82 80//82 79//82 91//82
f 119//83 81//83 80//83 118//83
f 92//84 104//84 81//84 119//84
f 119//85 117//85 47//85 92//85
f 118//86 120//86 117//86 119//86
f 118//87 91//87 46//87 120//87
f 39//88 72//88 73//88 124//88
f 124//89 73//89 74//89 123//89
f 123//90 74//90 75//90 122//90
f 122//91 75//91 76//91 121//91
f 128//92 122//92 121//92 129//92
f 127//93 123//93 122//93 128//93
f 126//94 124//94 123//94 127//94
f 125//95 39//95 124//95 126//95
f 128//96 129//96 125//96 126//96
f 127//97 128//97 126//97
f 131//98 101//98 102//98 130//98
f 130//99 102//99 63//99 141//99
f 141//100 63//100 62//100 142//100
f 140//101 64//101 101//101 131//101
f 139//102 65//102 64//102 140//102
f 138//103 66//103 65//103 139//103
f 137//104 67//104 66//104 138//104
f 136//105 68//105 67//105 137//105
f 135//106 69//106 68//106 136//106
f 134//107 70//107 69//107 135//107
f 132//108 100//108 70//108 134//108
f 133//109 71//109 100//109 132//109
f 142//110 62//110 71//110 133//110
f 143//111 142//111 133//111 152//111
f 152//112 133//112 132//112 153//112
f 153//113 132//113 134//113 151//113
f 151//114 134//114 135//114 150//114
f 150//115 135//115 136//115 149//115
f 149//116 136//116 137//116 148//116
f 148//117 137//117 138//117 147//117
f 147//118 138//118 139//118 146//118
f 146//119 139//119 140//119 145//119
f 145//120 140//120 131//120 154//120
f 144//121 141//121 142//121 143//121
f 155//122 130//122 141//122 144//122
f 154//123 131//123 130//123 155//123
f 156//124 61//124 34//124 40//124
f 157//125 60//125 61//125 156//125
f 158//126 59//126 60//126 157//126
f 159//127 58//127 59//127 158//127
f 160//128 57//128 58//128 159//128
f 161//129 56//129 57//129 160//129
f 162//130 55//130 56//130 161//130
f 163//131 54//131 55//131 162//131
f 164//132 53//132 54//132 163//132
f 182//133 172//133 171//133 187//133
f 187//134 171//134 170//134 186//134
f 186//135 170//135 169//135 188//135
f 169//136 52//136 51//136 188//136
f 188//137 51//137 50//137 185//137
f 185//138 50//138 49//138 183//138
f 183//139 49//139 48//139 184//139
f 187//140 186//140 183//140 184//140
f 188//141 185//141 183//141 186//141
f 187//142 184//142 181//142 182//142
f 184//143 48//143 47//143 181//143
f 190//144 189//144 117//144 120//144
f 189//145 181//145 47//145 117//145
f 190//146 120//146 46//146 191//146
f 164//147 191//147 46//147 53//147
f 194//148 180//148 44//148 167//148
f 193//149 194//149 167//149 45//149
f 192//150 193//150 45//150 168//150
f 182//151 192//151 168//151 172//151
f 192//152 182//152 181//152 189//152
f 177//153 163//153 162//153 173//153
f 180//154 176//154 43//154 44//154
f 196//155 197//155 165//155 166//155
f 195//156 196//156 166//156 42//156
f 176//157 195//157 42//157 43//157
f 199//158 161//158 160//158 200//158
f 202//159 199//159 200//159 201//159
f 203//160 202//160 201//160 204//160
f 206//161 203//161 204//161 205//161
f 205//162 207//162 175//162 206//162
f 205//163 195//163 176//163 207//163
f 204//164 196//164 195//164 205//164
f 201//165 197//165 196//165 204//165
f 200//166 198//166 197//166 201//166
f 200//167 160//167 159//167 198//167
f 197//168 198//168 41//168 165//168
f 158//169 157//169 156//169 159//169
f 198//170 159//170 156//170 41//170
f 41//171 156//171 40//171
f 173//172 162//172 161//172 199//172
f 202//173 174//173 173//173 199//173
f 203//174 209//174 174//174 202//174
f 203//175 206//175 175//175 209//175
f 211//176 193//176 192//176 210//176
f 211//177 210//177 177//177 178//177
f 210//178 164//178 163//178 177//178
f 189//179 190//179 164//179 210//179
f 210//180 192//180 189//180
f 190//181 191//181 164//181
f 208//182 179//182 175//182 207//182
f 208//183 207//183 176//183 180//183
f 208//184 211//184 178//184 179//184
f 208//185 194//185 193//185 211//185
f 194//186 208//186 180//186
f 225//187 212//187 218//187 219//187
f 220//188 219//188 218//188 217//188
f 221//189 220//189 217//189 216//189
f 222//190 221//190 216//190 215//190
f 223//191 222//191 215//191 214//191
f 224//192 223//192 214//192 213//192
f 227//193 228//193 223//193 224//193
f 228//194 229//194 222//194 223//194
f 229//195 230//195 221//195 222//195
f 230//196 231//196 220//196 221//196
f 231//197 232//197 219//197 220//197
f 226//198 225//198 219//198 232//198
f 240//199 178//199 177//199 239//199
f 224//200 213//200 178//200 240//200
f 239//201 177//201 173//201 174//201
f 225//202 233//202 209//202 212//202
f 238//203 227//203 224//203 240//203
f 240//204 241//204 237//204 238//204
f 237//205 241//205 235//205 236//205
f 241//206 242//206 234//206 235//206
f 234//207 242//207 233//207 243//207
f 243//208 233//208 225//208 226//208
f 233//209 242//209 174//209 209//209
f 241//210 239//210 174//210 242//210
f 241//211 240//211 239//211
f 244//212 243//212 226//212 256//212
f 249//213 234//213 243//213 244//213
f 248//214 235//214 234//214 249//214
f 247//215 236//215 235//215 248//215
f 246//216 237//216 236//216 247//216
f 245//217 238//217 237//217 246//217
f 255//218 227//218 238//218 245//218
f 256//219 226//219 232//219 250//219
f 250//220 232//220 231//220 251//220
f 251//221 231//221 230//221 252//221
f 252//222 230//222 229//222 253//222
f 253//223 229//223 228//223 254//223
f 254//224 228//224 227//224 255//224
f 258//225 246//225 247//225 257//225
f 259//226 258//226 257//226 260//226
f 262//227 259//227 260//227 261//227
f 263//228 262//228 261//228 264//228
f 261//229 256//229 250//229 264//229
f 261//230 260//230 244//230 256//230
f 257//231 249//231 244//231 260//231
f 249//232 257//232 247//232 248//232
f 258//233 255//233 245//233 246//233
f 258//234 259//234 254//234 255//234
f 259//235 262//235 253//235 254//235
f 262//236 263//236 252//236 253//236
f 263//237 264//237 251//237 252//237
f 251//238 264//238 250//238
f 270//239 213//239 214//239 269//239
f 269//240 214//240 215//240 268//240
f 268//241 215//241 216//241 267//241
f 267//242 216//242 217//242 266//242
f 266//243 217//243 218//243 265//243
f 265//244 218//244 212//244 271//244
f 270//245 269//245 265//245 271//245
f 268//246 266//246 265//246 269//246
f 268//247 267//247 266//247
f 212//248 209//248 175//248 271//248
f 270//249 271//249 175//249 179//249
f 270//250 179//250 178//250 213//250
